<?xml version="1.0" encoding="UTF-8"?>
<svg width="491px" height="348px" viewBox="0 0 491 348" version="1.1" xmlns="http://www.w3.org/2000/svg" xmlns:xlink="http://www.w3.org/1999/xlink">
    <!-- Generator: Sketch 51.3 (57544) - http://www.bohemiancoding.com/sketch -->
    <title>Group 4</title>
    <desc>Created with Sketch.</desc>
    <defs></defs>
    <g id="Page-1" stroke="none" stroke-width="1" fill="none" fill-rule="evenodd">
        <g id="beyond-intelligence" transform="translate(-174.000000, -1134.000000)">
            <g id="Group-4" transform="translate(174.000000, 1134.000000)">
                <circle id="Oval-Copy" fill="" cx="262" cy="154" r="103"></circle>
                <path d="M41.556,214.384 C41.556,198.928 50.208,190.024 64.488,190.024 C78.432,190.024 86.076,198.424 86.076,211.108 L86.076,212.536 L79.188,212.536 L79.188,211.36 C79.188,202.204 74.316,196.324 64.488,196.324 C54.24,196.324 48.444,202.792 48.444,214.132 L48.444,227.068 C48.444,238.408 54.24,244.876 64.488,244.876 C74.652,244.876 79.188,239.08 79.188,230.008 L79.188,228.664 L86.076,228.664 L86.076,230.008 C86.076,243.028 78.096,251.176 64.488,251.176 C50.04,251.176 41.556,242.272 41.556,226.816 L41.556,214.384 Z M93.636,229.504 C93.636,216.82 102.288,207.832 114.552,207.832 C126.732,207.832 135.384,216.82 135.384,229.504 C135.384,242.188 126.732,251.176 114.552,251.176 C102.288,251.176 93.636,242.188 93.636,229.504 Z M100.02,229.504 C100.02,239.248 105.816,245.296 114.552,245.296 C123.204,245.296 129,239.08 129,229.504 C129,219.928 123.204,213.796 114.552,213.796 C105.816,213.796 100.02,220.096 100.02,229.504 Z M145.296,209.008 L151.512,209.008 L151.512,216.316 L152.688,216.316 C154.788,212.284 158.736,208.336 167.052,208.336 C175.704,208.336 183.264,213.88 183.264,225.22 L183.264,250 L176.796,250 L176.796,225.724 C176.796,217.744 172.428,213.964 165.288,213.964 C157.224,213.964 151.68,219.172 151.68,228.916 L151.68,250 L145.296,250 L145.296,209.008 Z M190.488,209.008 L202.92,209.008 L202.92,197.752 C202.92,193.72 205.44,191.2 209.304,191.2 L219.804,191.2 L219.804,196.828 L211.572,196.828 C210.06,196.828 209.304,197.584 209.304,199.264 L209.304,209.008 L221.988,209.008 L221.988,214.636 L209.304,214.636 L209.304,250 L202.92,250 L202.92,214.636 L190.488,214.636 L190.488,209.008 Z M227.364,229.168 C227.364,217.156 235.932,207.748 247.776,207.748 C259.536,207.748 267.6,216.064 267.6,228.16 L267.6,231.604 L234.084,231.604 C234.588,240.172 240.3,245.464 248.532,245.464 C255.252,245.464 258.948,242.02 261.216,237.316 L266.844,240.256 C263.904,245.548 258.864,251.176 248.616,251.176 C235.848,251.176 227.364,241.6 227.364,229.168 Z M234.084,226.312 L260.88,226.312 C260.712,218.164 255.588,213.46 247.776,213.46 C240.048,213.46 234.84,218.248 234.084,226.312 Z M283.308,209.008 L283.308,215.14 L284.484,215.14 C285.996,211.024 289.188,208.84 295.068,208.84 L300.192,208.84 L300.192,215.056 L293.136,215.056 C287.088,215.056 283.56,218.5 283.56,225.304 L283.56,250 L277.176,250 L277.176,209.008 L283.308,209.008 Z M305.568,229.168 C305.568,217.156 314.136,207.748 325.98,207.748 C337.74,207.748 345.804,216.064 345.804,228.16 L345.804,231.604 L312.288,231.604 C312.792,240.172 318.504,245.464 326.736,245.464 C333.456,245.464 337.152,242.02 339.42,237.316 L345.048,240.256 C342.108,245.548 337.068,251.176 326.82,251.176 C314.052,251.176 305.568,241.6 305.568,229.168 Z M312.288,226.312 L339.084,226.312 C338.916,218.164 333.792,213.46 325.98,213.46 C318.252,213.46 313.044,218.248 312.288,226.312 Z M355.38,209.008 L361.596,209.008 L361.596,216.316 L362.772,216.316 C364.872,212.284 368.82,208.336 377.136,208.336 C385.788,208.336 393.348,213.88 393.348,225.22 L393.348,250 L386.88,250 L386.88,225.724 C386.88,217.744 382.512,213.964 375.372,213.964 C367.308,213.964 361.764,219.172 361.764,228.916 L361.764,250 L355.38,250 L355.38,209.008 Z M402.672,229.504 C402.672,216.904 411.744,207.832 423.84,207.832 C434.592,207.832 441.9,214.72 443.412,223.624 L437.028,224.884 C436.272,218.5 431.484,213.796 423.84,213.796 C415.356,213.796 409.14,220.264 409.14,229.504 C409.14,238.828 415.356,245.296 424.008,245.296 C432.24,245.296 436.02,240.172 437.196,234.124 L443.58,235.384 C441.9,243.532 435.516,251.176 424.008,251.176 C411.744,251.176 402.672,242.104 402.672,229.504 Z M450.468,229.168 C450.468,217.156 459.036,207.748 470.88,207.748 C482.64,207.748 490.704,216.064 490.704,228.16 L490.704,231.604 L457.188,231.604 C457.692,240.172 463.404,245.464 471.636,245.464 C478.356,245.464 482.052,242.02 484.32,237.316 L489.948,240.256 C487.008,245.548 481.968,251.176 471.72,251.176 C458.952,251.176 450.468,241.6 450.468,229.168 Z M457.188,226.312 L483.984,226.312 C483.816,218.164 478.692,213.46 470.88,213.46 C463.152,213.46 457.944,218.248 457.188,226.312 Z M136.476,272.2 L182.592,272.2 L182.592,278.5 L162.936,278.5 L162.936,331 L156.048,331 L156.048,278.5 L136.476,278.5 L136.476,272.2 Z M187.884,310.504 C187.884,297.82 196.536,288.832 208.8,288.832 C220.98,288.832 229.632,297.82 229.632,310.504 C229.632,323.188 220.98,332.176 208.8,332.176 C196.536,332.176 187.884,323.188 187.884,310.504 Z M194.268,310.504 C194.268,320.248 200.064,326.296 208.8,326.296 C217.452,326.296 223.248,320.08 223.248,310.504 C223.248,300.928 217.452,294.796 208.8,294.796 C200.064,294.796 194.268,301.096 194.268,310.504 Z M239.544,347.8 L239.544,290.008 L245.76,290.008 L245.76,297.064 L246.936,297.064 C249.288,292.948 253.404,288.832 261.888,288.832 C272.808,288.832 281.292,297.652 281.292,310.504 C281.292,323.356 272.808,332.176 261.888,332.176 C253.404,332.176 249.288,328.06 246.936,324.028 L245.928,324.028 L245.928,347.8 L239.544,347.8 Z M260.376,326.38 C268.944,326.38 274.824,320.5 274.824,310.504 C274.824,300.592 268.944,294.628 260.376,294.628 C251.724,294.628 245.928,300.844 245.928,310.504 C245.928,320.248 251.724,326.38 260.376,326.38 Z M288.852,277.24 C288.852,274.132 291.288,271.78 294.396,271.78 C297.504,271.78 299.94,274.132 299.94,277.24 C299.94,280.348 297.504,282.7 294.396,282.7 C291.288,282.7 288.852,280.348 288.852,277.24 Z M297.588,290.008 L297.588,331 L291.204,331 L291.204,290.008 L297.588,290.008 Z M307.5,310.504 C307.5,297.904 316.572,288.832 328.668,288.832 C339.42,288.832 346.728,295.72 348.24,304.624 L341.856,305.884 C341.1,299.5 336.312,294.796 328.668,294.796 C320.184,294.796 313.968,301.264 313.968,310.504 C313.968,319.828 320.184,326.296 328.836,326.296 C337.068,326.296 340.848,321.172 342.024,315.124 L348.408,316.384 C346.728,324.532 340.344,332.176 328.836,332.176 C316.572,332.176 307.5,323.104 307.5,310.504 Z M357.144,300.676 C357.144,293.116 364.2,288.832 372.6,288.832 C380.832,288.832 386.712,292.108 392.928,299.668 L387.972,303.028 C383.604,296.896 378.228,294.292 372.684,294.292 C367.392,294.292 363.528,296.476 363.528,300.592 C363.528,305.128 367.98,305.884 373.02,306.64 L376.884,307.228 C386.376,308.656 393.096,311.092 393.096,318.988 C393.096,326.884 385.872,332.176 375.204,332.176 C363.612,332.176 356.976,325.204 353.952,318.736 L359.748,315.796 C362.436,322.6 367.98,326.548 375.372,326.548 C382.092,326.548 386.628,323.608 386.628,319.156 C386.628,314.62 381.504,313.864 376.128,313.108 L372.264,312.52 C363.276,311.26 357.144,308.404 357.144,300.676 Z" id="Conference-Topics" fill="#1E2238"></path>
                <circle id="Oval-Copy-3" fill="" cx="378" cy="29" r="5"></circle>
                <circle id="Oval-Copy-23" fill="" cx="5" cy="107" r="5"></circle>
                <circle id="Oval-Copy-7" fill="" cx="446" cy="157" r="5"></circle>
                <circle id="Oval-Copy-31" fill="" cx="54.5" cy="2.5" r="2.5"></circle>
                <circle id="Oval-Copy-6" fill="" cx="145.5" cy="104.5" r="2.5"></circle>
                <circle id="Oval-Copy-8" fill="" cx="54.5" cy="65.5" r="2.5"></circle>
            </g>
        </g>
    </g>
</svg>