<?xml version="1.0" encoding="UTF-8"?>
<svg width="39px" height="56px" viewBox="0 0 39 56" version="1.1" xmlns="http://www.w3.org/2000/svg" xmlns:xlink="http://www.w3.org/1999/xlink">
    <!-- Generator: Sketch 51.3 (57544) - http://www.bohemiancoding.com/sketch -->
    <title>Group</title>
    <desc>Created with Sketch.</desc>
    <defs></defs>
    <g id="Page-1" stroke="none" stroke-width="1" fill="none" fill-rule="evenodd">
        <g id="Group" fill="#DED9D9">
            <path d="M3.28125,42.6113281 C2.47265221,42.6113281 1.8281274,42.3144561 1.34765625,41.7207031 C0.867185098,41.1269502 0.626953125,40.3339893 0.626953125,39.3417969 C0.626953125,38.3496044 0.869138203,37.5566436 1.35351562,36.9628906 C1.83789305,36.3691377 2.48046475,36.0722656 3.28125,36.0722656 C3.72265846,36.0722656 4.11816231,36.1699209 4.46777344,36.3652344 C4.81738456,36.5605479 5.08203035,36.8320295 5.26171875,37.1796875 L5.34960938,37.1796875 L5.34960938,33.6757812 L6.35742188,33.6757812 L6.35742188,42.5 L5.39648438,42.5 L5.39648438,41.4921875 L5.30273438,41.4921875 C5.10351463,41.8437518 4.82617365,42.1181631 4.47070312,42.3154297 C4.1152326,42.5126963 3.71875219,42.6113281 3.28125,42.6113281 Z M3.515625,36.9804688 C2.94140338,36.9804688 2.49023602,37.1904276 2.16210938,37.6103516 C1.83398273,38.0302755 1.66992188,38.6074182 1.66992188,39.3417969 C1.66992188,40.0800818 1.83300618,40.658201 2.15917969,41.0761719 C2.48535319,41.4941427 2.93749711,41.703125 3.515625,41.703125 C4.08984662,41.703125 4.54296709,41.4921896 4.875,41.0703125 C5.20703291,40.6484354 5.37304688,40.0722693 5.37304688,39.3417969 C5.37304688,38.619137 5.20605636,38.044924 4.87207031,37.6191406 C4.53808427,37.1933572 4.08594035,36.9804688 3.515625,36.9804688 Z M10.8339844,36.9628906 C10.3300756,36.9628906 9.91601725,37.1328108 9.59179688,37.4726562 C9.2675765,37.8125017 9.0859377,38.261716 9.046875,38.8203125 L12.5273438,38.8203125 C12.5156249,38.261716 12.3554703,37.8125017 12.046875,37.4726562 C11.7382797,37.1328108 11.3339869,36.9628906 10.8339844,36.9628906 Z M12.4980469,40.8652344 L13.5058594,40.8652344 C13.3535149,41.4082058 13.0449242,41.8349594 12.5800781,42.1455078 C12.1152321,42.4560562 11.5371128,42.6113281 10.8457031,42.6113281 C9.97069875,42.6113281 9.27734631,42.3173858 8.765625,41.7294922 C8.25390369,41.1415986 7.99804688,40.3476613 7.99804688,39.3476562 C7.99804688,38.3554638 8.2558568,37.5615264 8.77148438,36.9658203 C9.28711195,36.3701142 9.97851129,36.0722656 10.8457031,36.0722656 C11.6972699,36.0722656 12.3671851,36.3564425 12.8554688,36.9248047 C13.3437524,37.4931669 13.5878906,38.2675732 13.5878906,39.2480469 L13.5878906,39.6347656 L9.046875,39.6347656 L9.046875,39.6816406 C9.07421889,40.3066437 9.25097493,40.8027325 9.57714844,41.1699219 C9.90332194,41.5371112 10.3339817,41.7207031 10.8691406,41.7207031 C11.2753927,41.7207031 11.615233,41.6474617 11.8886719,41.5009766 C12.1621107,41.3544915 12.3652337,41.1425795 12.4980469,40.8652344 Z M15.0234375,37.9121094 C15.0234375,37.3886693 15.2480446,36.9511736 15.6972656,36.5996094 C16.1464866,36.2480451 16.7070279,36.0722656 17.3789062,36.0722656 C18.0429721,36.0722656 18.588865,36.2246079 19.0166016,36.5292969 C19.4443381,36.8339859 19.6914059,37.2460912 19.7578125,37.765625 L18.7617188,37.765625 C18.6953122,37.5117175 18.5429699,37.3085945 18.3046875,37.15625 C18.0664051,37.0039055 17.7558613,36.9277344 17.3730469,36.9277344 C16.998045,36.9277344 16.6816419,37.0146476 16.4238281,37.1884766 C16.1660143,37.3623056 16.0371094,37.5898423 16.0371094,37.8710938 C16.0371094,38.0859386 16.1269522,38.2646477 16.3066406,38.4072266 C16.486329,38.5498054 16.7617169,38.6660152 17.1328125,38.7558594 L18.1054688,38.9902344 C18.6992217,39.1347663 19.1416001,39.3427721 19.4326172,39.6142578 C19.7236343,39.8857435 19.8691406,40.2480446 19.8691406,40.7011719 C19.8691406,41.267581 19.6269555,41.7275373 19.1425781,42.0810547 C18.6582007,42.4345721 18.0566442,42.6113281 17.3378906,42.6113281 C16.6347621,42.6113281 16.058596,42.4550797 15.609375,42.1425781 C15.160154,41.8300766 14.9082034,41.412112 14.8535156,40.8886719 L15.890625,40.8886719 C15.9765629,41.1542982 16.14453,41.3662101 16.3945312,41.5244141 C16.6445325,41.682618 16.9707011,41.7617188 17.3730469,41.7617188 C17.7988303,41.7617188 18.1484361,41.6699228 18.421875,41.4863281 C18.6953139,41.3027335 18.8320312,41.0664077 18.8320312,40.7773438 C18.8320312,40.5585927 18.7490243,40.3759773 18.5830078,40.2294922 C18.4169914,40.0830071 18.1660173,39.9687504 17.8300781,39.8867188 L16.7460938,39.6230469 C16.1562471,39.4785149 15.7216811,39.2714857 15.4423828,39.0019531 C15.1630845,38.7324205 15.0234375,38.3691429 15.0234375,37.9121094 Z M21.4746094,42.5 L21.4746094,36.1835938 L22.4824219,36.1835938 L22.4824219,42.5 L21.4746094,42.5 Z M21.9785156,34.9003906 C21.7871084,34.9003906 21.622071,34.8310554 21.4833984,34.6923828 C21.3447259,34.5537102 21.2753906,34.3886728 21.2753906,34.1972656 C21.2753906,34.0019521 21.3447259,33.8359382 21.4833984,33.6992188 C21.622071,33.5624993 21.7871084,33.4941406 21.9785156,33.4941406 C22.1738291,33.4941406 22.3398431,33.5624993 22.4765625,33.6992188 C22.6132819,33.8359382 22.6816406,34.0019521 22.6816406,34.1972656 C22.6816406,34.3886728 22.6132819,34.5537102 22.4765625,34.6923828 C22.3398431,34.8310554 22.1738291,34.9003906 21.9785156,34.9003906 Z M26.9589844,41.515625 C27.5449248,41.515625 28.0039046,41.3095724 28.3359375,40.8974609 C28.6679704,40.4853495 28.8339844,39.9355503 28.8339844,39.2480469 C28.8339844,38.5605434 28.6669939,38.0107442 28.3330078,37.5986328 C27.9990218,37.1865214 27.5410185,36.9804688 26.9589844,36.9804688 C26.3730439,36.9804688 25.9218766,37.1865214 25.6054688,37.5986328 C25.2890609,38.0107442 25.1308594,38.5605434 25.1308594,39.2480469 C25.1308594,39.9355503 25.2890609,40.4853495 25.6054688,40.8974609 C25.9218766,41.3095724 26.3730439,41.515625 26.9589844,41.515625 Z M27.0058594,44.9257812 C26.2441368,44.9257812 25.6318383,44.7685563 25.1689453,44.4541016 C24.7060524,44.1396469 24.4355473,43.7207057 24.3574219,43.1972656 L25.4238281,43.1972656 C25.4785159,43.4550794 25.6425768,43.661132 25.9160156,43.8154297 C26.1894545,43.9697273 26.5527321,44.046875 27.0058594,44.046875 C27.5722685,44.046875 28.0146468,43.9150404 28.3330078,43.6513672 C28.6513688,43.387694 28.8105469,43.0234398 28.8105469,42.5585938 L28.8105469,41.3164062 L28.7167969,41.3164062 C28.5175771,41.6640642 28.2460955,41.9326162 27.9023438,42.1220703 C27.558592,42.3115244 27.169924,42.40625 26.7363281,42.40625 C25.9199178,42.40625 25.2744164,42.1162138 24.7998047,41.5361328 C24.3251929,40.9560518 24.0878906,40.1933641 24.0878906,39.2480469 C24.0878906,38.3027296 24.3261695,37.5371123 24.8027344,36.9511719 C25.2792993,36.3652314 25.9238241,36.0722656 26.7363281,36.0722656 C27.1777366,36.0722656 27.5810529,36.1728506 27.9462891,36.3740234 C28.3115253,36.5751963 28.5839835,36.8457014 28.7636719,37.1855469 L28.8574219,37.1855469 L28.8574219,36.1835938 L29.8183594,36.1835938 L29.8183594,42.6113281 C29.8183594,43.3183629 29.5654322,43.8808573 29.0595703,44.2988281 C28.5537084,44.716799 27.8691449,44.9257812 27.0058594,44.9257812 Z M31.7167969,42.5 L31.7167969,36.1835938 L32.6777344,36.1835938 L32.6777344,37.1796875 L32.7714844,37.1796875 C32.9316414,36.8320295 33.1669906,36.5605479 33.4775391,36.3652344 C33.7880875,36.1699209 34.1855445,36.0722656 34.6699219,36.0722656 C35.3808629,36.0722656 35.9267559,36.274412 36.3076172,36.6787109 C36.6884785,37.0830098 36.8789062,37.6601525 36.8789062,38.4101562 L36.8789062,42.5 L35.8710938,42.5 L35.8710938,38.65625 C35.8710938,38.0859346 35.7490247,37.6640639 35.5048828,37.390625 C35.260741,37.1171861 34.8867213,36.9804688 34.3828125,36.9804688 C33.8789037,36.9804688 33.476564,37.1386703 33.1757812,37.4550781 C32.8749985,37.771486 32.7246094,38.2070285 32.7246094,38.7617188 L32.7246094,42.5 L31.7167969,42.5 Z M1.00195312,55.5 L1.00195312,46.6757812 L2.00976562,46.6757812 L2.00976562,55.5 L1.00195312,55.5 Z M5.91210938,54.7265625 C6.43164322,54.7265625 6.86230298,54.5751968 7.20410156,54.2724609 C7.54590015,53.969725 7.71679688,53.5937522 7.71679688,53.1445312 L7.71679688,52.5644531 L6.01757812,52.6757812 C5.09569852,52.7382816 4.63476562,53.0820281 4.63476562,53.7070312 C4.63476562,54.0273454 4.75585816,54.2773429 4.99804688,54.4570312 C5.24023559,54.6367196 5.54492004,54.7265625 5.91210938,54.7265625 Z M5.72460938,55.6113281 C5.11132506,55.6113281 4.60254108,55.4423845 4.19824219,55.1044922 C3.79394329,54.7665999 3.59179688,54.3085966 3.59179688,53.7304688 C3.59179688,52.574213 4.35936732,51.9511723 5.89453125,51.8613281 L7.71679688,51.75 L7.71679688,51.1757812 C7.71679688,50.3710897 7.24023914,49.96875 6.28710938,49.96875 C5.90820123,49.96875 5.59375125,50.0371087 5.34375,50.1738281 C5.09374875,50.3105476 4.9335941,50.503905 4.86328125,50.7539062 L3.84375,50.7539062 C3.91015658,50.2460912 4.17187271,49.8388687 4.62890625,49.5322266 C5.08593979,49.2255844 5.65038727,49.0722656 6.32226562,49.0722656 C7.09180072,49.0722656 7.68456823,49.2587872 8.10058594,49.6318359 C8.51660364,50.0048847 8.72460938,50.519528 8.72460938,51.1757812 L8.72460938,55.5 L7.76367188,55.5 L7.76367188,54.5683594 L7.66992188,54.5683594 C7.46679586,54.9042986 7.1972673,55.1621085 6.86132812,55.3417969 C6.52538895,55.5214853 6.14648648,55.6113281 5.72460938,55.6113281 Z M13.7285156,55.6113281 C13.2910134,55.6113281 12.8935565,55.5126963 12.5361328,55.3154297 C12.1787092,55.1181631 11.9003916,54.8437518 11.7011719,54.4921875 L11.6074219,54.4921875 L11.6074219,55.5 L10.6464844,55.5 L10.6464844,46.6757812 L11.6542969,46.6757812 L11.6542969,50.1796875 L11.7480469,50.1796875 C11.9199227,49.8398421 12.1845685,49.5703135 12.5419922,49.3710938 C12.8994158,49.171874 13.2949197,49.0722656 13.7285156,49.0722656 C14.5332071,49.0722656 15.1757788,49.3691377 15.65625,49.9628906 C16.1367212,50.5566436 16.3769531,51.3496044 16.3769531,52.3417969 C16.3769531,53.3300831 16.1357446,54.1220673 15.6533203,54.7177734 C15.170896,55.3134795 14.5293009,55.6113281 13.7285156,55.6113281 Z M13.4941406,49.9804688 C12.919919,49.9804688 12.465822,50.1914041 12.1318359,50.6132812 C11.7978499,51.0351584 11.6308594,51.6113245 11.6308594,52.3417969 C11.6308594,53.0722693 11.7978499,53.6484354 12.1318359,54.0703125 C12.465822,54.4921896 12.919919,54.703125 13.4941406,54.703125 C14.0722685,54.703125 14.5234359,54.4941427 14.8476562,54.0761719 C15.1718766,53.658201 15.3339844,53.0800818 15.3339844,52.3417969 C15.3339844,51.6035119 15.1718766,51.0253927 14.8476562,50.6074219 C14.5234359,50.189451 14.0722685,49.9804688 13.4941406,49.9804688 Z" id="design-lab"></path>
            <rect id="Rectangle-4" x="0" y="16.5" width="6.5" height="12.5"></rect>
            <rect id="Rectangle-4-Copy" x="9.5" y="0" width="6.5" height="29"></rect>
            <rect id="Rectangle-4-Copy-2" x="19" y="0" width="6.5" height="29"></rect>
            <rect id="Rectangle-4-Copy-3" x="28.5" y="21" width="10" height="8"></rect>
        </g>
    </g>
</svg>