<svg width="812" height="745" viewBox="0 0 812 745" xmlns="http://www.w3.org/2000/svg"><g fill="none" fill-rule="evenodd" stroke-width="1.5"><path d="M529 12c80.419 15.554 50 59 124 125s199 227 145 331-18.112 147.008-145 221c-74.612 43.508-189 27-275 52S77.981 643.239 35 478C-12.019 297.239-49 109 198 49S448.581-3.554 529 12z" stroke="#E1BD8C"/><path d="M479 56c70.793 13.691 72.93 51.717 143 116s180.11 196.533 132.574 288.08c-47.536 91.546-15.944 129.404-127.644 194.535C561.25 692.913 460.706 660.994 385 683c-75.706 22.006-264.26-68.667-302.096-214.118C41.513 309.767 35 191 155 126s253.207-83.691 324-70z" stroke="#DFB288"/><path d="M470.766 109.292c59.341 11.466 101.614 89.824 166.274 125.597 43.106 23.849 64.426 97.24 63.96 220.173-8.401 67.333-43.812 119.18-106.233 155.543-55.056 32.073-194.279 47.55-255.193 29.28-60.915-18.27-150.256-79.172-200.832-184.823-60.044-125.426-52.553-256.68 60.434-287.148 112.986-30.467 212.248-70.088 271.59-58.622z" stroke="#DDA884"/><path d="M463.948 151.992c50.532 9.769 86.528 76.527 141.589 107.005 36.706 20.318 54.861 82.845 54.464 187.58-7.154 57.365-37.307 101.537-90.461 132.517-46.883 27.325-165.435 40.511-217.306 24.945-51.871-15.566-127.949-67.452-171.016-157.462-51.13-106.86-44.75-218.684 51.462-244.64 96.212-25.958 180.737-59.713 231.268-49.945z" stroke="#DA9D7F"/><path d="M459.077 191.689c41.712 8.05 71.427 63.064 116.878 88.18 45.45 25.115 53.201 81.41 44.959 154.579-6.615 58.723-8.858 70.91-74.674 109.204-38.7 22.518-136.563 33.384-179.382 20.556-42.818-12.827-105.618-55.585-141.17-129.76-42.206-88.06-36.94-180.211 42.481-201.602 79.421-21.39 149.195-49.207 190.908-41.157z" stroke="#D78B77"/><path d="M456 243c33.208 6.416 59.532 21 96 68s42.447 54.756 36.468 104.626c-5.511 45.964-7.052 56.519-59.45 87.042-30.81 17.948-108.72 26.609-142.809 16.384-34.088-10.224-84.085-44.304-112.388-103.426-33.601-70.189-29.409-143.639 33.82-160.688C370.869 237.888 422.79 236.584 456 243z" stroke="#D58474"/><path d="M456.06 286.01c24.056 4.632 43.126 15.159 69.545 49.084 26.418 33.924 30.75 39.523 26.418 75.519-3.993 33.177-5.109 40.795-43.067 62.827-22.32 12.955-78.76 19.206-103.455 11.827-24.695-7.38-60.914-31.98-81.418-74.654-24.341-50.662-21.304-103.679 24.5-115.985 45.805-12.307 83.42-13.248 107.476-8.617z" stroke="#D2786F"/><path d="M438.72 317.047c15.004 2.891 26.898 9.463 43.375 30.644 16.477 21.18 19.179 24.676 16.477 47.15-2.49 20.714-3.186 25.47-26.86 39.225-13.921 8.089-49.123 11.992-64.525 7.384-15.402-4.607-37.992-19.966-50.78-46.61-15.181-31.63-13.287-64.73 15.28-72.413 28.57-7.684 52.029-8.272 67.033-5.38z" stroke="#CF6B6A"/><path d="M422.554 360.882c4.18.79 7.493 2.587 12.084 8.375 4.59 5.788 5.343 6.743 4.59 12.885-.693 5.66-.887 6.96-7.483 10.72-3.878 2.21-13.686 3.277-17.977 2.018-4.29-1.26-10.584-5.457-14.147-12.738-4.23-8.644-3.702-17.69 4.257-19.79 7.96-2.1 14.495-2.26 18.676-1.47z" stroke="#CF6B6A"/></g></svg>
